<svg width="24" height="28" viewBox="0 0 24 28" fill="none" xmlns="http://www.w3.org/2000/svg">
<rect x="9.30615" y="0.285706" width="14.6939" height="27.4286" fill="#F5C400"/>
<rect x="13.7142" y="21.3469" width="5.87755" height="6.36735" fill="#B4B3BA"/>
<rect y="5.67346" width="14.6939" height="22.0408" fill="#FFDA45"/>
<path fill-rule="evenodd" clip-rule="evenodd" d="M6.12269 9.59186H8.57167V12.0408H6.12269V9.59186ZM2.44946 9.59188H4.89844V12.0409H2.44946V9.59188ZM2.44922 13.2653H4.8982V15.7143H2.44922V13.2653ZM4.8982 16.9388H2.44922V19.3878H4.8982V16.9388ZM12.2451 9.59186H9.79616V12.0408H12.2451V9.59186ZM6.12269 13.2653H8.57167V15.7143H6.12269V13.2653ZM12.2451 13.2653H9.79616V15.7143H12.2451V13.2653ZM6.12269 16.9388H8.57167V19.3878H6.12269V16.9388ZM12.2451 16.9388H9.79616V19.3878H12.2451V16.9388Z" fill="#FEFDFC"/>
<path fill-rule="evenodd" clip-rule="evenodd" d="M11.7551 2.73468H14.2041V5.18365H11.7551V2.73468ZM15.4288 2.73469H17.8778V5.18366H15.4288V2.73469ZM17.8646 13.7507H15.4157V16.1997H17.8646V13.7507ZM19.1023 2.73469H21.5513V5.18366H19.1023V2.73469ZM21.5381 13.7507H19.0891V16.1997H21.5381V13.7507ZM15.4288 6.40813H17.8778V8.8571H15.4288V6.40813ZM17.8646 17.4242H15.4157V19.8731H17.8646V17.4242ZM19.1023 6.40813H21.5513V8.8571H19.1023V6.40813ZM21.5381 17.4242H19.0891V19.8731H21.5381V17.4242ZM17.8778 10.0816H15.4288V12.5306H17.8778V10.0816ZM21.5513 10.0816H19.1023V12.5306H21.5513V10.0816Z" fill="#ECEBED"/>
<rect x="4.4082" y="21.3469" width="5.87755" height="6.36735" fill="#F5C400"/>
</svg>
