<svg width="24" height="20" viewBox="0 0 24 20" fill="none" xmlns="http://www.w3.org/2000/svg">
<mask id="path-1-inside-1_110_1840" fill="white">
<path d="M3.21948 2.09756H20.7805V19.9512H3.21948V2.09756Z"/>
</mask>
<path d="M3.21948 2.09756H20.7805V19.9512H3.21948V2.09756Z" fill="#535257"/>
<path d="M19.9077 2.09756V19.9512H21.6532V2.09756H19.9077ZM4.09221 19.9512V2.09756H2.34676V19.9512H4.09221Z" fill="#FFDA45" mask="url(#path-1-inside-1_110_1840)"/>
<rect x="2.63416" y="0.0487976" width="18.7317" height="2.04878" fill="#FFDA45"/>
<rect y="2.68292" width="3.21951" height="1.17073" fill="#B4B3BA"/>
<rect x="20.7805" y="2.68292" width="3.21951" height="1.17073" fill="#B4B3BA"/>
<mask id="path-6-inside-2_110_1840" fill="white">
<path d="M20.7805 3.85367H23.7073V19.9512H20.7805V3.85367Z"/>
</mask>
<path d="M20.7805 3.85367H23.7073V19.9512H20.7805V3.85367Z" fill="#6C6C6D"/>
<path d="M22.8346 3.85367V19.9512H24.5801V3.85367H22.8346Z" fill="#B4B3BA" mask="url(#path-6-inside-2_110_1840)"/>
<mask id="path-8-inside-3_110_1840" fill="white">
<path d="M0.292725 3.85367H3.21955V19.9512H0.292725V3.85367Z"/>
</mask>
<path d="M0.292725 3.85367H3.21955V19.9512H0.292725V3.85367Z" fill="#6C6C6D"/>
<path d="M1.16545 19.9512V3.85367H-0.580003V19.9512H1.16545Z" fill="#B4B3BA" mask="url(#path-8-inside-3_110_1840)"/>
<path fill-rule="evenodd" clip-rule="evenodd" d="M11.4158 3.40146H9.07372V5.74358H11.4158V3.40146ZM7.90316 3.40148H5.56104V5.7436H7.90316V3.40148ZM7.90321 6.91461H5.56108V9.25673H7.90321V6.91461ZM5.56108 10.4278H7.90321V12.77H5.56108V10.4278ZM12.5874 3.40146H14.9296V5.74358H12.5874V3.40146ZM18.4388 3.40146H16.0967V5.74358H18.4388V3.40146ZM9.07372 6.91461H11.4158V9.25673H9.07372V6.91461ZM14.9296 6.91461H12.5874V9.25673H14.9296V6.91461ZM16.0967 6.91461H18.4388V9.25673H16.0967V6.91461ZM11.4158 10.4278H9.07372V12.77H11.4158V10.4278ZM12.5874 10.4278H14.9296V12.77H12.5874V10.4278ZM18.4388 10.4278H16.0967V12.77H18.4388V10.4278Z" fill="#FFDA45"/>
<rect x="8.19507" y="14.6829" width="7.60976" height="5.26829" fill="#F5C400"/>
</svg>
