<svg width="24" height="24" viewBox="0 0 24 24" fill="none" xmlns="http://www.w3.org/2000/svg">
<path d="M3.70911 22.3637V9.62729L12 4.79405L20.2909 9.62729V22.3637H3.70911Z" fill="#F5C400" stroke="#FFDA45" stroke-width="1.30909"/>
<path d="M9.1637 16.4727C9.1637 15.5088 9.94516 14.7273 10.9091 14.7273H13.091C14.055 14.7273 14.8364 15.5088 14.8364 16.4727V21.7091H9.1637V16.4727Z" fill="#ECEBED"/>
<path fill-rule="evenodd" clip-rule="evenodd" d="M11.9958 0.981842L0 7.90764L1.44436 10.4093L12 4.31505L22.5556 10.4093L24 7.90764L12.0042 0.981842L12 0.989047L11.9958 0.981842Z" fill="#F5C400"/>
<rect x="4.36365" y="2.29095" width="3.05454" height="3.49091" fill="#F5C400"/>
<rect x="3.92725" y="1.41821" width="3.92727" height="0.872727" fill="#F5C400"/>
<path fill-rule="evenodd" clip-rule="evenodd" d="M11.7818 8.84219C10.599 8.90569 9.58778 9.48961 9.07897 10.5818H11.7818V8.84219ZM8.91144 11.0182C8.79216 11.404 8.72729 11.8405 8.72729 12.3273H11.7818V11.0182H8.91144ZM12.2182 12.3273H15.2727C15.2727 11.8405 15.2079 11.404 15.0886 11.0182H12.2182V12.3273ZM14.9211 10.5818H12.2182V8.84219C13.4011 8.90569 14.4123 9.48961 14.9211 10.5818Z" fill="#FEFDFC"/>
</svg>
