<svg width="142" height="128" viewBox="0 0 142 128" fill="none" xmlns="http://www.w3.org/2000/svg">
<path d="M0 7.10152C0 3.9844 3.40745 2.06512 6.07321 3.68073L33.0732 20.0444C34.2694 20.7693 35 22.0664 35 23.4652V116C35 118.209 33.2091 120 31 120H4C1.79086 120 0 118.209 0 116V7.10152Z" fill="#FDEEB3"/>
<path fill-rule="evenodd" clip-rule="evenodd" d="M72.0212 22.8745C72.0212 21.77 72.9166 20.8745 74.0212 20.8745H102C103.105 20.8745 104 21.77 104 22.8745V67.4902C104 68.5948 103.105 69.4902 102 69.4902H74.0212C73.9183 69.4902 73.8173 69.4824 73.7186 69.4675L72.0718 67.9393C72.0387 67.795 72.0212 67.6446 72.0212 67.4902V22.8745ZM69.9156 67.9909C69.9569 67.8309 69.9788 67.6631 69.9788 67.4902V22.8746C69.9788 21.77 69.0834 20.8746 67.9788 20.8746H40C38.8954 20.8746 38 21.77 38 22.8746V67.4902C38 68.5948 38.8954 69.4902 40 69.4902H67.9788C68.0999 69.4902 68.2185 69.4795 68.3337 69.4589L69.9156 67.9909ZM68.2827 71.4072C68.1838 71.3921 68.0826 71.3843 67.9795 71.3843H40.0007C38.8962 71.3843 38.0007 72.2798 38.0007 73.3843V118C38.0007 119.105 38.8962 120 40.0007 120H67.9795C69.0841 120 69.9795 119.105 69.9795 118V73.3843C69.9795 73.2297 69.962 73.0792 69.9288 72.9347L68.2827 71.4072ZM72.0613 72.9838C72.035 73.1132 72.0212 73.2472 72.0212 73.3843V118C72.0212 119.105 72.9166 120 74.0212 120H102C103.105 120 104 119.105 104 118V73.3843C104 72.2798 103.105 71.3843 102 71.3843H74.0212C73.9354 71.3843 73.8508 71.3897 73.7679 71.4002L72.0613 72.9838Z" fill="#F5C400"/>
<path d="M142 7.10152C142 3.9844 138.593 2.06512 135.927 3.68073L108.927 20.0444C107.731 20.7693 107 22.0664 107 23.4652V116C107 118.209 108.791 120 111 120H138C140.209 120 142 118.209 142 116V7.10152Z" fill="#FDEEB3"/>
</svg>
